<svg xmlns="http://www.w3.org/2000/svg" width="1440" height="900"><path d="M845,473L813,347L735,491Z" fill="#41afc3" stroke="#41afc3" stroke-width="1.51"/><path d="M813,347L691,350L735,491Z" fill="#52b8c2" stroke="#52b8c2" stroke-width="1.51"/><path d="M813,347L748,220L691,350Z" fill="#70c2be" stroke="#70c2be" stroke-width="1.51"/><path d="M978,352L883,279L813,347Z" fill="#60b1be" stroke="#60b1be" stroke-width="1.51"/><path d="M883,279L748,220L813,347Z" fill="#77bebe" stroke="#77bebe" stroke-width="1.51"/><path d="M691,350L573,402L735,491Z" fill="#59bdc1" stroke="#59bdc1" stroke-width="1.51"/><path d="M582,232L573,402L691,350Z" fill="#78c9bd" stroke="#78c9bd" stroke-width="1.51"/><path d="M845,473L978,352L813,347Z" fill="#4cabc0" stroke="#4cabc0" stroke-width="1.51"/><path d="M735,491L888,603L845,473Z" fill="#2f9fc2" stroke="#2f9fc2" stroke-width="1.51"/><path d="M845,473L990,554L978,352Z" fill="#339cc0" stroke="#339cc0" stroke-width="1.51"/><path d="M740,636L888,603L735,491Z" fill="#2d99c0" stroke="#2d99c0" stroke-width="1.51"/><path d="M570,548L740,636L735,491Z" fill="#3ea6c1" stroke="#3ea6c1" stroke-width="1.51"/><path d="M573,402L570,548L735,491Z" fill="#53b7c1" stroke="#53b7c1" stroke-width="1.51"/><path d="M888,603L990,554L845,473Z" fill="#2293c0" stroke="#2293c0" stroke-width="1.51"/><path d="M748,220L582,232L691,350Z" fill="#87cdbd" stroke="#87cdbd" stroke-width="1.51"/><path d="M570,548L554,606L740,636Z" fill="#4ca1bc" stroke="#4ca1bc" stroke-width="1.51"/><path d="M490,503L554,606L570,548Z" fill="#5cb0be" stroke="#5cb0be" stroke-width="1.51"/><path d="M490,503L570,548L573,402Z" fill="#61bbbf" stroke="#61bbbf" stroke-width="1.51"/><path d="M978,352L1011,239L883,279Z" fill="#6facb9" stroke="#6facb9" stroke-width="1.51"/><path d="M883,279L807,86L748,220Z" fill="#91c7bc" stroke="#91c7bc" stroke-width="1.51"/><path d="M1073,382L1011,239L978,352Z" fill="#619eb6" stroke="#619eb6" stroke-width="1.51"/><path d="M990,554L1073,382L978,352Z" fill="#3f95ba" stroke="#3f95ba" stroke-width="1.51"/><path d="M435,342L490,503L573,402Z" fill="#77c8be" stroke="#77c8be" stroke-width="1.51"/><path d="M888,603L974,674L990,554Z" fill="#237eb8" stroke="#237eb8" stroke-width="1.51"/><path d="M990,554L1091,555L1073,382Z" fill="#3085b7" stroke="#3085b7" stroke-width="1.51"/><path d="M881,789L974,674L888,603Z" fill="#2573b2" stroke="#2573b2" stroke-width="1.51"/><path d="M881,789L888,603L740,636Z" fill="#2b7eb5" stroke="#2b7eb5" stroke-width="1.51"/><path d="M943,104L807,86L883,279Z" fill="#95c3bb" stroke="#95c3bb" stroke-width="1.51"/><path d="M748,220L572,131L582,232Z" fill="#a0d7ba" stroke="#a0d7ba" stroke-width="1.51"/><path d="M974,674L1091,555L990,554Z" fill="#2378b5" stroke="#2378b5" stroke-width="1.51"/><path d="M807,86L727,83L748,220Z" fill="#a0d1bb" stroke="#a0d1bb" stroke-width="1.51"/><path d="M582,232L473,255L573,402Z" fill="#8dd2ba" stroke="#8dd2ba" stroke-width="1.51"/><path d="M572,131L473,255L582,232Z" fill="#a8dcb8" stroke="#a8dcb8" stroke-width="1.51"/><path d="M473,255L435,342L573,402Z" fill="#8bd1ba" stroke="#8bd1ba" stroke-width="1.51"/><path d="M1011,239L943,104L883,279Z" fill="#89b6b9" stroke="#89b6b9" stroke-width="1.51"/><path d="M727,83L572,131L748,220Z" fill="#a4d7bb" stroke="#a4d7bb" stroke-width="1.51"/><path d="M604,775L714,778L740,636Z" fill="#4381b1" stroke="#4381b1" stroke-width="1.51"/><path d="M1011,239L1108,83L943,104Z" fill="#94aeb3" stroke="#94aeb3" stroke-width="1.51"/><path d="M1073,382L1127,280L1011,239Z" fill="#6a99b2" stroke="#6a99b2" stroke-width="1.51"/><path d="M1197,389L1127,280L1073,382Z" fill="#588cb0" stroke="#588cb0" stroke-width="1.51"/><path d="M714,778L881,789L740,636Z" fill="#3678b0" stroke="#3678b0" stroke-width="1.51"/><path d="M974,674L1126,613L1091,555Z" fill="#246eb0" stroke="#246eb0" stroke-width="1.51"/><path d="M714,778L712,873L881,789Z" fill="#366ca5" stroke="#366ca5" stroke-width="1.51"/><path d="M554,606L604,775L740,636Z" fill="#4b8fb5" stroke="#4b8fb5" stroke-width="1.51"/><path d="M477,682L604,775L554,606Z" fill="#5b90b2" stroke="#5b90b2" stroke-width="1.51"/><path d="M1091,555L1197,389L1073,382Z" fill="#3d85b4" stroke="#3d85b4" stroke-width="1.51"/><path d="M1146,813L1126,613L974,674Z" fill="#2359a6" stroke="#2359a6" stroke-width="1.51"/><path d="M490,503L477,682L554,606Z" fill="#64a8ba" stroke="#64a8ba" stroke-width="1.51"/><path d="M343,658L477,682L490,503Z" fill="#75a9b7" stroke="#75a9b7" stroke-width="1.51"/><path d="M435,342L363,411L490,503Z" fill="#87cdbd" stroke="#87cdbd" stroke-width="1.51"/><path d="M372,270L363,411L435,342Z" fill="#9ed8b8" stroke="#9ed8b8" stroke-width="1.51"/><path d="M881,789L965,797L974,674Z" fill="#2963ab" stroke="#2963ab" stroke-width="1.51"/><path d="M891,872L965,797L881,789Z" fill="#275ca0" stroke="#275ca0" stroke-width="1.51"/><path d="M1252,511L1197,389L1091,555Z" fill="#3778b0" stroke="#3778b0" stroke-width="1.51"/><path d="M466,113L372,270L473,255Z" fill="#bbe4b6" stroke="#bbe4b6" stroke-width="1.51"/><path d="M473,255L372,270L435,342Z" fill="#a7dcb8" stroke="#a7dcb8" stroke-width="1.51"/><path d="M572,131L466,113L473,255Z" fill="#b7e2b6" stroke="#b7e2b6" stroke-width="1.51"/><path d="M619,-34L466,113L572,131Z" fill="#bce3be" stroke="#bce3be" stroke-width="1.51"/><path d="M807,86L737,-20L727,83Z" fill="#a8d4c6" stroke="#a8d4c6" stroke-width="1.51"/><path d="M727,83L619,-34L572,131Z" fill="#b3ddc2" stroke="#b3ddc2" stroke-width="1.51"/><path d="M943,104L857,-13L807,86Z" fill="#a2c8c4" stroke="#a2c8c4" stroke-width="1.51"/><path d="M957,-6L857,-13L943,104Z" fill="#a2c3c7" stroke="#a2c3c7" stroke-width="1.51"/><path d="M857,-13L737,-20L807,86Z" fill="#a7d1cb" stroke="#a7d1cb" stroke-width="1.51"/><path d="M604,775L712,873L714,778Z" fill="#4473a5" stroke="#4473a5" stroke-width="1.51"/><path d="M553,860L712,873L604,775Z" fill="#49739c" stroke="#49739c" stroke-width="1.51"/><path d="M477,682L450,737L604,775Z" fill="#648bad" stroke="#648bad" stroke-width="1.51"/><path d="M343,658L450,737L477,682Z" fill="#7698b0" stroke="#7698b0" stroke-width="1.51"/><path d="M712,873L891,872L881,789Z" fill="#2b629b" stroke="#2b629b" stroke-width="1.51"/><path d="M1098,31L957,-6L943,104Z" fill="#9eb6c0" stroke="#9eb6c0" stroke-width="1.51"/><path d="M1108,83L1011,239L1127,280Z" fill="#88a1b0" stroke="#88a1b0" stroke-width="1.51"/><path d="M1197,389L1225,266L1127,280Z" fill="#668aad" stroke="#668aad" stroke-width="1.51"/><path d="M1230,112L1108,83L1127,280Z" fill="#909bac" stroke="#909bac" stroke-width="1.51"/><path d="M1126,613L1252,511L1091,555Z" fill="#296fb0" stroke="#296fb0" stroke-width="1.51"/><path d="M1197,389L1327,235L1225,266Z" fill="#6c83a9" stroke="#6c83a9" stroke-width="1.51"/><path d="M1234,662L1252,511L1126,613Z" fill="#2961aa" stroke="#2961aa" stroke-width="1.51"/><path d="M1234,662L1126,613L1146,813Z" fill="#2550a1" stroke="#2550a1" stroke-width="1.51"/><path d="M737,-20L619,-34L727,83Z" fill="#b0dbcd" stroke="#b0dbcd" stroke-width="1.51"/><path d="M686,-129L619,-34L737,-20Z" fill="#b2ddce" stroke="#b2ddce" stroke-width="1.51"/><path d="M686,-129L737,-20L823,-166Z" fill="#abd7ce" stroke="#abd7ce" stroke-width="1.51"/><path d="M363,411L297,513L490,503Z" fill="#88c9bd" stroke="#88c9bd" stroke-width="1.51"/><path d="M218,370L297,513L363,411Z" fill="#9bd4bc" stroke="#9bd4bc" stroke-width="1.51"/><path d="M450,737L553,860L604,775Z" fill="#5e7ea8" stroke="#5e7ea8" stroke-width="1.51"/><path d="M450,737L444,871L553,860Z" fill="#657d9e" stroke="#657d9e" stroke-width="1.51"/><path d="M297,513L343,658L490,503Z" fill="#83bbbc" stroke="#83bbbc" stroke-width="1.51"/><path d="M1208,1L1098,31L1108,83Z" fill="#9ca2b9" stroke="#9ca2b9" stroke-width="1.51"/><path d="M1108,83L1098,31L943,104Z" fill="#9cacb8" stroke="#9cacb8" stroke-width="1.51"/><path d="M1146,813L974,674L965,797Z" fill="#2755a4" stroke="#2755a4" stroke-width="1.51"/><path d="M891,872L1009,898L965,797Z" fill="#215293" stroke="#215293" stroke-width="1.51"/><path d="M1008,1014L1009,898L891,872Z" fill="#194b86" stroke="#194b86" stroke-width="1.51"/><path d="M822,1023L891,872L712,873Z" fill="#255d8c" stroke="#255d8c" stroke-width="1.51"/><path d="M466,113L315,150L372,270Z" fill="#cbeab4" stroke="#cbeab4" stroke-width="1.51"/><path d="M372,270L218,370L363,411Z" fill="#a7dbb8" stroke="#a7dbb8" stroke-width="1.51"/><path d="M619,-34L418,31L466,113Z" fill="#c6e8c3" stroke="#c6e8c3" stroke-width="1.51"/><path d="M1009,898L1146,813L965,797Z" fill="#214993" stroke="#214993" stroke-width="1.51"/><path d="M418,31L315,150L466,113Z" fill="#d4eeb6" stroke="#d4eeb6" stroke-width="1.51"/><path d="M1225,266L1230,112L1127,280Z" fill="#8593aa" stroke="#8593aa" stroke-width="1.51"/><path d="M1327,235L1230,112L1225,266Z" fill="#878ba6" stroke="#878ba6" stroke-width="1.51"/><path d="M432,-95L350,-15L418,31Z" fill="#dcf1c7" stroke="#dcf1c7" stroke-width="1.51"/><path d="M823,-166L737,-20L857,-13Z" fill="#a8d1ce" stroke="#a8d1ce" stroke-width="1.51"/><path d="M937,-120L857,-13L957,-6Z" fill="#a3c4cc" stroke="#a3c4cc" stroke-width="1.51"/><path d="M304,798L444,871L450,737Z" fill="#7985a3" stroke="#7985a3" stroke-width="1.51"/><path d="M685,1031L822,1023L712,873Z" fill="#2c638d" stroke="#2c638d" stroke-width="1.51"/><path d="M1142,-142L937,-120L957,-6Z" fill="#a1b5c6" stroke="#a1b5c6" stroke-width="1.51"/><path d="M1142,-142L957,-6L1098,31Z" fill="#9facc3" stroke="#9facc3" stroke-width="1.51"/><path d="M175,262L218,370L372,270Z" fill="#bce4b6" stroke="#bce4b6" stroke-width="1.51"/><path d="M297,513L244,639L343,658Z" fill="#8eb4b7" stroke="#8eb4b7" stroke-width="1.51"/><path d="M1252,511L1404,424L1197,389Z" fill="#3f73a8" stroke="#3f73a8" stroke-width="1.51"/><path d="M1234,662L1347,524L1252,511Z" fill="#2a61a6" stroke="#2a61a6" stroke-width="1.51"/><path d="M1403,647L1347,524L1234,662Z" fill="#245299" stroke="#245299" stroke-width="1.51"/><path d="M1404,424L1327,235L1197,389Z" fill="#5679a0" stroke="#5679a0" stroke-width="1.51"/><path d="M190,549L244,639L297,513Z" fill="#95bfba" stroke="#95bfba" stroke-width="1.51"/><path d="M343,658L304,798L450,737Z" fill="#8394ab" stroke="#8394ab" stroke-width="1.51"/><path d="M937,-120L823,-166L857,-13Z" fill="#a5cace" stroke="#a5cace" stroke-width="1.51"/><path d="M1146,813L1276,761L1234,662Z" fill="#26419b" stroke="#26419b" stroke-width="1.51"/><path d="M1220,894L1276,761L1146,813Z" fill="#21368d" stroke="#21368d" stroke-width="1.51"/><path d="M1390,92L1208,1L1230,112Z" fill="#9790aa" stroke="#9790aa" stroke-width="1.51"/><path d="M1230,112L1208,1L1108,83Z" fill="#9b9bb2" stroke="#9b9bb2" stroke-width="1.51"/><path d="M685,1031L712,873L573,1005Z" fill="#3a698b" stroke="#3a698b" stroke-width="1.51"/><path d="M1009,898L1107,932L1146,813Z" fill="#193e84" stroke="#193e84" stroke-width="1.51"/><path d="M218,370L190,549L297,513Z" fill="#9dcfbc" stroke="#9dcfbc" stroke-width="1.51"/><path d="M1008,1014L1107,932L1009,898Z" fill="#184281" stroke="#184281" stroke-width="1.51"/><path d="M230,816L304,798L244,639Z" fill="#8f94a9" stroke="#8f94a9" stroke-width="1.51"/><path d="M244,639L304,798L343,658Z" fill="#8b9dae" stroke="#8b9dae" stroke-width="1.51"/><path d="M315,150L175,262L372,270Z" fill="#cfebb4" stroke="#cfebb4" stroke-width="1.51"/><path d="M418,31L350,-15L315,150Z" fill="#dff3bc" stroke="#dff3bc" stroke-width="1.51"/><path d="M432,-95L418,31L619,-34Z" fill="#cbeac9" stroke="#cbeac9" stroke-width="1.51"/><path d="M573,1005L553,860L490,1006Z" fill="#4c6f89" stroke="#4c6f89" stroke-width="1.51"/><path d="M573,1005L712,873L553,860Z" fill="#416b8b" stroke="#416b8b" stroke-width="1.51"/><path d="M490,1006L553,860L444,871Z" fill="#567288" stroke="#567288" stroke-width="1.51"/><path d="M584,-174L619,-34L686,-129Z" fill="#b8e0cd" stroke="#b8e0cd" stroke-width="1.51"/><path d="M584,-174L432,-95L619,-34Z" fill="#c1e6ca" stroke="#c1e6ca" stroke-width="1.51"/><path d="M1347,524L1404,424L1252,511Z" fill="#32689f" stroke="#32689f" stroke-width="1.51"/><path d="M1468,527L1404,424L1347,524Z" fill="#2b6192" stroke="#2b6192" stroke-width="1.51"/><path d="M32,556L111,610L190,549Z" fill="#9fc2c1" stroke="#9fc2c1" stroke-width="1.51"/><path d="M221,101L175,262L315,150Z" fill="#ddf2b3" stroke="#ddf2b3" stroke-width="1.51"/><path d="M823,-166L584,-174L686,-129Z" fill="#b0dcce" stroke="#b0dcce" stroke-width="1.51"/><path d="M1104,1040L1008,1014L822,1023Z" fill="#194a86" stroke="#194a86" stroke-width="1.51"/><path d="M822,1023L1008,1014L891,872Z" fill="#1a538a" stroke="#1a538a" stroke-width="1.51"/><path d="M1276,761L1336,742L1234,662Z" fill="#243f96" stroke="#243f96" stroke-width="1.51"/><path d="M1365,927L1336,742L1276,761Z" fill="#1d2d82" stroke="#1d2d82" stroke-width="1.51"/><path d="M1107,932L1220,894L1146,813Z" fill="#1a3680" stroke="#1a3680" stroke-width="1.51"/><path d="M1230,1035L1220,894L1107,932Z" fill="#173179" stroke="#173179" stroke-width="1.51"/><path d="M350,-15L221,101L315,150Z" fill="#e4f4b8" stroke="#e4f4b8" stroke-width="1.51"/><path d="M191,4L221,101L350,-15Z" fill="#ecf8c0" stroke="#ecf8c0" stroke-width="1.51"/><path d="M304,798L372,925L444,871Z" fill="#737f91" stroke="#737f91" stroke-width="1.51"/><path d="M372,925L490,1006L444,871Z" fill="#627688" stroke="#627688" stroke-width="1.51"/><path d="M573,1005L374,1074L685,1031Z" fill="#4b6f89" stroke="#4b6f89" stroke-width="1.51"/><path d="M1336,742L1403,647L1234,662Z" fill="#214392" stroke="#214392" stroke-width="1.51"/><path d="M1208,1L1142,-142L1098,31Z" fill="#9ea1be" stroke="#9ea1be" stroke-width="1.51"/><path d="M937,-120L1142,-142L823,-166Z" fill="#a2bcc9" stroke="#a2bcc9" stroke-width="1.51"/><path d="M1241,-128L1142,-142L1208,1Z" fill="#9e9bbc" stroke="#9e9bbc" stroke-width="1.51"/><path d="M96,775L230,816L244,639Z" fill="#9799aa" stroke="#9799aa" stroke-width="1.51"/><path d="M304,798L230,816L372,925Z" fill="#7f8496" stroke="#7f8496" stroke-width="1.51"/><path d="M432,-95L338,-97L350,-15Z" fill="#e1f3c7" stroke="#e1f3c7" stroke-width="1.51"/><path d="M206,-168L338,-97L432,-95Z" fill="#e7f6c6" stroke="#e7f6c6" stroke-width="1.51"/><path d="M1327,235L1390,92L1230,112Z" fill="#8b899c" stroke="#8b899c" stroke-width="1.51"/><path d="M1404,424L1454,260L1327,235Z" fill="#5b7690" stroke="#5b7690" stroke-width="1.51"/><path d="M1478,358L1454,260L1404,424Z" fill="#4a6e89" stroke="#4a6e89" stroke-width="1.51"/><path d="M1454,260L1390,92L1327,235Z" fill="#7a818f" stroke="#7a818f" stroke-width="1.51"/><path d="M190,549L111,610L244,639Z" fill="#9bbab7" stroke="#9bbab7" stroke-width="1.51"/><path d="M43,419L190,549L218,370Z" fill="#a8d8bf" stroke="#a8d8bf" stroke-width="1.51"/><path d="M1403,647L1468,527L1347,524Z" fill="#1e5690" stroke="#1e5690" stroke-width="1.51"/><path d="M1008,1014L1104,1040L1107,932Z" fill="#163d7f" stroke="#163d7f" stroke-width="1.51"/><path d="M685,1031L1104,1040L822,1023Z" fill="#1e578b" stroke="#1e578b" stroke-width="1.51"/><path d="M1468,527L1478,358L1404,424Z" fill="#32668c" stroke="#32668c" stroke-width="1.51"/><path d="M1336,-132L1241,-128L1208,1Z" fill="#9d93b8" stroke="#9d93b8" stroke-width="1.51"/><path d="M338,-97L191,4L350,-15Z" fill="#eaf7c6" stroke="#eaf7c6" stroke-width="1.51"/><path d="M110,132L83,216L175,262Z" fill="#e1f3b8" stroke="#e1f3b8" stroke-width="1.51"/><path d="M175,262L43,419L218,370Z" fill="#b9e1bb" stroke="#b9e1bb" stroke-width="1.51"/><path d="M110,132L175,262L221,101Z" fill="#e5f5b3" stroke="#e5f5b3" stroke-width="1.51"/><path d="M1403,647L1467,662L1468,527Z" fill="#194a85" stroke="#194a85" stroke-width="1.51"/><path d="M1621,295L1454,260L1478,358Z" fill="#587388" stroke="#587388" stroke-width="1.51"/><path d="M1472,741L1467,662L1403,647Z" fill="#163b7e" stroke="#163b7e" stroke-width="1.51"/><path d="M1472,741L1403,647L1336,742Z" fill="#1a3882" stroke="#1a3882" stroke-width="1.51"/><path d="M1472,741L1336,742L1365,927Z" fill="#192a79" stroke="#192a79" stroke-width="1.51"/><path d="M191,4L110,132L221,101Z" fill="#f1f9b8" stroke="#f1f9b8" stroke-width="1.51"/><path d="M83,216L43,419L175,262Z" fill="#c9e9be" stroke="#c9e9be" stroke-width="1.51"/><path d="M230,816L176,866L372,925Z" fill="#80828f" stroke="#80828f" stroke-width="1.51"/><path d="M372,925L374,1074L490,1006Z" fill="#677887" stroke="#677887" stroke-width="1.51"/><path d="M96,775L176,866L230,816Z" fill="#928c9f" stroke="#928c9f" stroke-width="1.51"/><path d="M96,775L244,639L111,610Z" fill="#99a7b3" stroke="#99a7b3" stroke-width="1.51"/><path d="M1390,92L1392,-20L1208,1Z" fill="#948ca8" stroke="#948ca8" stroke-width="1.51"/><path d="M1487,-25L1392,-20L1390,92Z" fill="#8a8598" stroke="#8a8598" stroke-width="1.51"/><path d="M1504,166L1390,92L1454,260Z" fill="#797e87" stroke="#797e87" stroke-width="1.51"/><path d="M1104,1040L1230,1035L1107,932Z" fill="#17357c" stroke="#17357c" stroke-width="1.51"/><path d="M43,419L32,556L190,549Z" fill="#a5cfc5" stroke="#a5cfc5" stroke-width="1.51"/><path d="M1624,508L1625,390L1468,527Z" fill="#2a628c" stroke="#2a628c" stroke-width="1.51"/><path d="M1365,927L1276,761L1220,894Z" fill="#1a2a7b" stroke="#1a2a7b" stroke-width="1.51"/><path d="M1625,390L1478,358L1468,527Z" fill="#36678c" stroke="#36678c" stroke-width="1.51"/><path d="M1621,295L1504,166L1454,260Z" fill="#6c7987" stroke="#6c7987" stroke-width="1.51"/><path d="M685,1031L374,1074L1104,1040Z" fill="#2d658d" stroke="#2d658d" stroke-width="1.51"/><path d="M1600,1075L1380,1037L1230,1035Z" fill="#0b1f5e" stroke="#0b1f5e" stroke-width="1.51"/><path d="M490,1006L374,1074L573,1005Z" fill="#597388" stroke="#597388" stroke-width="1.51"/><path d="M169,1072L374,1074L372,925Z" fill="#767d87" stroke="#767d87" stroke-width="1.51"/><path d="M-75,641L96,775L111,610Z" fill="#9da9bd" stroke="#9da9bd" stroke-width="1.51"/><path d="M1230,1035L1365,927L1220,894Z" fill="#162773" stroke="#162773" stroke-width="1.51"/><path d="M1241,-128L1336,-132L1142,-142Z" fill="#9d96b9" stroke="#9d96b9" stroke-width="1.51"/><path d="M1142,-142L1491,-160L823,-166Z" fill="#9ea1be" stroke="#9ea1be" stroke-width="1.51"/><path d="M1392,-20L1336,-132L1208,1Z" fill="#978faf" stroke="#978faf" stroke-width="1.51"/><path d="M1491,-160L1336,-132L1392,-20Z" fill="#8d879e" stroke="#8d879e" stroke-width="1.51"/><path d="M191,4L69,24L110,132Z" fill="#f5fbc2" stroke="#f5fbc2" stroke-width="1.51"/><path d="M110,132L-35,220L83,216Z" fill="#e7f6c0" stroke="#e7f6c0" stroke-width="1.51"/><path d="M83,216L-35,220L43,419Z" fill="#d0ecc5" stroke="#d0ecc5" stroke-width="1.51"/><path d="M43,419L-92,510L32,556Z" fill="#a9d2cf" stroke="#a9d2cf" stroke-width="1.51"/><path d="M32,-169L69,24L191,4Z" fill="#fafdce" stroke="#fafdce" stroke-width="1.51"/><path d="M338,-97L206,-168L191,4Z" fill="#eff9c5" stroke="#eff9c5" stroke-width="1.51"/><path d="M584,-174L206,-168L432,-95Z" fill="#dbf1c7" stroke="#dbf1c7" stroke-width="1.51"/><path d="M1504,166L1487,-25L1390,92Z" fill="#85828b" stroke="#85828b" stroke-width="1.51"/><path d="M-96,136L-35,220L110,132Z" fill="#eef8c5" stroke="#eef8c5" stroke-width="1.51"/><path d="M1624,508L1468,527L1632,612Z" fill="#1d568b" stroke="#1d568b" stroke-width="1.51"/><path d="M1504,166L1621,104L1487,-25Z" fill="#85828b" stroke="#85828b" stroke-width="1.51"/><path d="M1632,612L1467,662L1628,776Z" fill="#163b7e" stroke="#163b7e" stroke-width="1.51"/><path d="M1632,612L1468,527L1467,662Z" fill="#1a4c87" stroke="#1a4c87" stroke-width="1.51"/><path d="M1625,390L1621,295L1478,358Z" fill="#4a6e89" stroke="#4a6e89" stroke-width="1.51"/><path d="M1365,927L1489,911L1472,741Z" fill="#0e2162" stroke="#0e2162" stroke-width="1.51"/><path d="M1230,1035L1380,1037L1365,927Z" fill="#12246b" stroke="#12246b" stroke-width="1.51"/><path d="M1484,1043L1380,1037L1600,1075Z" fill="#081d58" stroke="#081d58" stroke-width="1.51"/><path d="M1380,1037L1489,911L1365,927Z" fill="#0a1f5c" stroke="#0a1f5c" stroke-width="1.51"/><path d="M1628,776L1467,662L1472,741Z" fill="#17337b" stroke="#17337b" stroke-width="1.51"/><path d="M1624,508L1780,386L1625,390Z" fill="#35678c" stroke="#35678c" stroke-width="1.51"/><path d="M32,556L-75,641L111,610Z" fill="#a1bcc7" stroke="#a1bcc7" stroke-width="1.51"/><path d="M-101,350L-92,510L43,419Z" fill="#b2ddce" stroke="#b2ddce" stroke-width="1.51"/><path d="M-92,510L-75,641L32,556Z" fill="#a3c5cd" stroke="#a3c5cd" stroke-width="1.51"/><path d="M96,775L61,946L176,866Z" fill="#8c8797" stroke="#8c8797" stroke-width="1.51"/><path d="M176,866L169,1072L372,925Z" fill="#7d7f86" stroke="#7d7f86" stroke-width="1.51"/><path d="M-35,220L-101,350L43,419Z" fill="#c4e7ca" stroke="#c4e7ca" stroke-width="1.51"/><path d="M-32,916L61,946L96,775Z" fill="#8c869a" stroke="#8c869a" stroke-width="1.51"/><path d="M98,1044L169,1072L176,866Z" fill="#848289" stroke="#848289" stroke-width="1.51"/><path d="M69,24L-19,17L110,132Z" fill="#f8fcc9" stroke="#f8fcc9" stroke-width="1.51"/><path d="M-35,220L-156,237L-101,350Z" fill="#d6efc8" stroke="#d6efc8" stroke-width="1.51"/><path d="M-17,-151L-19,17L69,24Z" fill="#ffffd8" stroke="#ffffd8" stroke-width="1.51"/><path d="M1654,15L1621,104L1737,104Z" fill="#85828c" stroke="#85828c" stroke-width="1.51"/><path d="M1621,295L1621,104L1504,166Z" fill="#777d87" stroke="#777d87" stroke-width="1.51"/><path d="M1780,386L1621,295L1625,390Z" fill="#476d8a" stroke="#476d8a" stroke-width="1.51"/><path d="M1607,891L1472,741L1489,911Z" fill="#0f2265" stroke="#0f2265" stroke-width="1.51"/><path d="M1607,891L1628,776L1472,741Z" fill="#152771" stroke="#152771" stroke-width="1.51"/><path d="M1665,-100L1491,-160L1487,-25Z" fill="#898498" stroke="#898498" stroke-width="1.51"/><path d="M1487,-25L1491,-160L1392,-20Z" fill="#898498" stroke="#898498" stroke-width="1.51"/><path d="M1336,-132L1491,-160L1142,-142Z" fill="#968ead" stroke="#968ead" stroke-width="1.51"/><path d="M823,-166L1491,-160L584,-174Z" fill="#a2bcc9" stroke="#a2bcc9" stroke-width="1.51"/><path d="M-19,17L-96,136L110,132Z" fill="#f8fcc8" stroke="#f8fcc8" stroke-width="1.51"/><path d="M61,946L98,1044L176,866Z" fill="#85838d" stroke="#85838d" stroke-width="1.51"/><path d="M-19,1035L98,1044L61,946Z" fill="#878493" stroke="#878493" stroke-width="1.51"/><path d="M1380,1037L1484,1043L1489,911Z" fill="#081d58" stroke="#081d58" stroke-width="1.51"/><path d="M1600,1075L1230,1035L1104,1040Z" fill="#13256d" stroke="#13256d" stroke-width="1.51"/><path d="M-75,641L-95,770L96,775Z" fill="#9e9fbd" stroke="#9e9fbd" stroke-width="1.51"/><path d="M-154,761L-95,770L-75,641Z" fill="#9ea0be" stroke="#9ea0be" stroke-width="1.51"/><path d="M-171,552L-75,641L-92,510Z" fill="#a3c5cd" stroke="#a3c5cd" stroke-width="1.51"/><path d="M1484,1043L1607,891L1489,911Z" fill="#081d58" stroke="#081d58" stroke-width="1.51"/><path d="M-95,770L-32,916L96,775Z" fill="#978faf" stroke="#978faf" stroke-width="1.51"/><path d="M-194,9L-170,127L-96,136Z" fill="#f8fcc9" stroke="#f8fcc9" stroke-width="1.51"/><path d="M206,-168L32,-169L191,4Z" fill="#f8fcc9" stroke="#f8fcc9" stroke-width="1.51"/><path d="M584,-174L32,-169L206,-168Z" fill="#ecf8c6" stroke="#ecf8c6" stroke-width="1.51"/><path d="M-181,391L-171,552L-92,510Z" fill="#aad4cf" stroke="#aad4cf" stroke-width="1.51"/><path d="M-96,136L-156,237L-35,220Z" fill="#e8f6c6" stroke="#e8f6c6" stroke-width="1.51"/><path d="M-170,127L-156,237L-96,136Z" fill="#edf8c6" stroke="#edf8c6" stroke-width="1.51"/><path d="M-181,391L-92,510L-101,350Z" fill="#b3decd" stroke="#b3decd" stroke-width="1.51"/><path d="M1796,659L1632,612L1628,776Z" fill="#163b7e" stroke="#163b7e" stroke-width="1.51"/><path d="M1796,659L1734,545L1632,612Z" fill="#194b86" stroke="#194b86" stroke-width="1.51"/><path d="M1632,612L1734,545L1624,508Z" fill="#1c558a" stroke="#1c558a" stroke-width="1.51"/><path d="M-156,237L-181,391L-101,350Z" fill="#c5e8c9" stroke="#c5e8c9" stroke-width="1.51"/><path d="M1621,104L1654,15L1487,-25Z" fill="#878493" stroke="#878493" stroke-width="1.51"/><path d="M1765,243L1621,104L1621,295Z" fill="#727b87" stroke="#727b87" stroke-width="1.51"/><path d="M32,-169L-17,-151L69,24Z" fill="#feffd6" stroke="#feffd6" stroke-width="1.51"/><path d="M-201,631L-154,761L-75,641Z" fill="#9faac2" stroke="#9faac2" stroke-width="1.51"/><path d="M-95,770L-150,887L-32,916Z" fill="#918aa4" stroke="#918aa4" stroke-width="1.51"/><path d="M-156,237L-170,127L-181,391Z" fill="#dbf1c7" stroke="#dbf1c7" stroke-width="1.51"/><path d="M-194,9L-96,136L-19,17Z" fill="#fbfed0" stroke="#fbfed0" stroke-width="1.51"/><path d="M1734,545L1780,386L1624,508Z" fill="#29618c" stroke="#29618c" stroke-width="1.51"/><path d="M1780,386L1765,243L1621,295Z" fill="#577288" stroke="#577288" stroke-width="1.51"/><path d="M-171,552L-201,631L-75,641Z" fill="#a2bbc9" stroke="#a2bbc9" stroke-width="1.51"/><path d="M-181,391L-201,631L-171,552Z" fill="#a7cdce" stroke="#a7cdce" stroke-width="1.51"/><path d="M-194,9L-201,631L-181,391Z" fill="#c1e6ca" stroke="#c1e6ca" stroke-width="1.51"/><path d="M-32,916L-19,1035L61,946Z" fill="#898497" stroke="#898497" stroke-width="1.51"/><path d="M98,1044L-19,1035L169,1072Z" fill="#868390" stroke="#868390" stroke-width="1.51"/><path d="M-150,887L-19,1035L-32,916Z" fill="#898498" stroke="#898498" stroke-width="1.51"/><path d="M1765,243L1737,104L1621,104Z" fill="#7c7f86" stroke="#7c7f86" stroke-width="1.51"/><path d="M1654,15L1665,-100L1487,-25Z" fill="#898498" stroke="#898498" stroke-width="1.51"/><path d="M1729,-104L1665,-100L1654,15Z" fill="#898498" stroke="#898498" stroke-width="1.51"/><path d="M1607,891L1745,807L1628,776Z" fill="#12246c" stroke="#12246c" stroke-width="1.51"/><path d="M1734,545L1796,659L1780,386Z" fill="#21598b" stroke="#21598b" stroke-width="1.51"/><path d="M1789,943L1745,807L1607,891Z" fill="#0a1f5d" stroke="#0a1f5d" stroke-width="1.51"/><path d="M-201,631L-150,887L-154,761Z" fill="#9e99bb" stroke="#9e99bb" stroke-width="1.51"/><path d="M-154,761L-150,887L-95,770Z" fill="#9a90b3" stroke="#9a90b3" stroke-width="1.51"/><path d="M1745,807L1796,659L1628,776Z" fill="#172f79" stroke="#172f79" stroke-width="1.51"/><path d="M374,1074L1600,1075L1104,1040Z" fill="#184382" stroke="#184382" stroke-width="1.51"/><path d="M1484,1043L1600,1075L1607,891Z" fill="#081d58" stroke="#081d58" stroke-width="1.51"/><path d="M-170,127L-194,9L-181,391Z" fill="#ecf8c6" stroke="#ecf8c6" stroke-width="1.51"/><path d="M-206,-92L-194,9L-19,17Z" fill="#ffffd9" stroke="#ffffd9" stroke-width="1.51"/><path d="M1737,104L1785,17L1654,15Z" fill="#878391" stroke="#878391" stroke-width="1.51"/><path d="M1765,243L1785,17L1737,104Z" fill="#818186" stroke="#818186" stroke-width="1.51"/><path d="M1780,386L1785,17L1765,243Z" fill="#727b87" stroke="#727b87" stroke-width="1.51"/><path d="M1796,659L1785,17L1780,386Z" fill="#486e89" stroke="#486e89" stroke-width="1.51"/><path d="M1785,17L1729,-104L1654,15Z" fill="#898498" stroke="#898498" stroke-width="1.51"/><path d="M1665,-100L1729,-104L1491,-160Z" fill="#898498" stroke="#898498" stroke-width="1.51"/><path d="M-17,-151L-206,-92L-19,17Z" fill="#ffffd9" stroke="#ffffd9" stroke-width="1.51"/><path d="M-194,9L-206,-92L-201,631Z" fill="#ebf7c6" stroke="#ebf7c6" stroke-width="1.51"/><path d="M32,-169L-206,-92L-17,-151Z" fill="#ffffd9" stroke="#ffffd9" stroke-width="1.51"/><path d="M1788,1022L1789,943L1607,891Z" fill="#081d58" stroke="#081d58" stroke-width="1.51"/><path d="M1745,807L1789,943L1796,659Z" fill="#152771" stroke="#152771" stroke-width="1.51"/><path d="M1600,1075L1788,1022L1607,891Z" fill="#081d58" stroke="#081d58" stroke-width="1.51"/><path d="M1789,943L1788,1022L1796,659Z" fill="#0c1f5e" stroke="#0c1f5e" stroke-width="1.51"/><path d="M-150,887L-199,1069L-19,1035Z" fill="#898498" stroke="#898498" stroke-width="1.51"/><path d="M-19,1035L-199,1069L169,1072Z" fill="#898498" stroke="#898498" stroke-width="1.51"/><path d="M169,1072L-199,1069L374,1074Z" fill="#85838d" stroke="#85838d" stroke-width="1.51"/><path d="M-201,631L-199,1069L-150,887Z" fill="#9089a2" stroke="#9089a2" stroke-width="1.51"/><path d="M-206,-92L-199,1069L-201,631Z" fill="#a6cbce" stroke="#a6cbce" stroke-width="1.51"/></svg>