<svg xmlns="http://www.w3.org/2000/svg" width="1440" height="900"><path d="M789,538L702,585L809,575Z" fill="#c9c9c5" stroke="#c9c9c5" stroke-width="1.51"/><path d="M702,585L767,660L809,575Z" fill="#c7c7c3" stroke="#c7c7c3" stroke-width="1.51"/><path d="M789,538L682,506L702,585Z" fill="#cbcbc8" stroke="#cbcbc8" stroke-width="1.51"/><path d="M834,665L857,635L809,575Z" fill="#c4c4bf" stroke="#c4c4bf" stroke-width="1.51"/><path d="M809,575L868,464L789,538Z" fill="#c9c9c5" stroke="#c9c9c5" stroke-width="1.51"/><path d="M767,660L834,665L809,575Z" fill="#c4c4c0" stroke="#c4c4c0" stroke-width="1.51"/><path d="M702,585L700,734L767,660Z" fill="#c6c6c1" stroke="#c6c6c1" stroke-width="1.51"/><path d="M682,506L611,637L702,585Z" fill="#ccccc8" stroke="#ccccc8" stroke-width="1.51"/><path d="M789,538L705,395L682,506Z" fill="#cfcfcb" stroke="#cfcfcb" stroke-width="1.51"/><path d="M951,532L868,464L809,575Z" fill="#c8c8c3" stroke="#c8c8c3" stroke-width="1.51"/><path d="M611,637L700,734L702,585Z" fill="#c8c8c3" stroke="#c8c8c3" stroke-width="1.51"/><path d="M767,660L769,808L834,665Z" fill="#c1c1bc" stroke="#c1c1bc" stroke-width="1.51"/><path d="M740,374L705,395L789,538Z" fill="#d0d0cc" stroke="#d0d0cc" stroke-width="1.51"/><path d="M682,506L538,514L611,637Z" fill="#cfcfcb" stroke="#cfcfcb" stroke-width="1.51"/><path d="M857,635L951,532L809,575Z" fill="#c5c5c1" stroke="#c5c5c1" stroke-width="1.51"/><path d="M986,638L951,532L857,635Z" fill="#c2c2be" stroke="#c2c2be" stroke-width="1.51"/><path d="M611,637L580,681L700,734Z" fill="#c7c7c3" stroke="#c7c7c3" stroke-width="1.51"/><path d="M430,605L580,681L611,637Z" fill="#ccccc8" stroke="#ccccc8" stroke-width="1.51"/><path d="M868,464L740,374L789,538Z" fill="#cececa" stroke="#cececa" stroke-width="1.51"/><path d="M700,734L769,808L767,660Z" fill="#c1c1bc" stroke="#c1c1bc" stroke-width="1.51"/><path d="M580,681L658,768L700,734Z" fill="#c5c5c0" stroke="#c5c5c0" stroke-width="1.51"/><path d="M868,464L901,419L740,374Z" fill="#cececa" stroke="#cececa" stroke-width="1.51"/><path d="M951,532L901,419L868,464Z" fill="#c9c9c5" stroke="#c9c9c5" stroke-width="1.51"/><path d="M658,333L583,437L705,395Z" fill="#d6d6d3" stroke="#d6d6d3" stroke-width="1.51"/><path d="M705,395L583,437L682,506Z" fill="#d3d3cf" stroke="#d3d3cf" stroke-width="1.51"/><path d="M583,437L538,514L682,506Z" fill="#d2d2cf" stroke="#d2d2cf" stroke-width="1.51"/><path d="M658,768L769,808L700,734Z" fill="#c1c1bc" stroke="#c1c1bc" stroke-width="1.51"/><path d="M899,776L986,638L857,635Z" fill="#bebeba" stroke="#bebeba" stroke-width="1.51"/><path d="M899,776L857,635L834,665Z" fill="#c0c0bb" stroke="#c0c0bb" stroke-width="1.51"/><path d="M769,808L899,776L834,665Z" fill="#bebeb9" stroke="#bebeb9" stroke-width="1.51"/><path d="M740,374L658,333L705,395Z" fill="#d5d5d2" stroke="#d5d5d2" stroke-width="1.51"/><path d="M752,274L658,333L740,374Z" fill="#d7d7d3" stroke="#d7d7d3" stroke-width="1.51"/><path d="M901,419L859,320L740,374Z" fill="#d1d1cd" stroke="#d1d1cd" stroke-width="1.51"/><path d="M967,313L859,320L901,419Z" fill="#d0d0cc" stroke="#d0d0cc" stroke-width="1.51"/><path d="M899,776L1006,721L986,638Z" fill="#bbbbb6" stroke="#bbbbb6" stroke-width="1.51"/><path d="M580,681L536,827L658,768Z" fill="#c5c5c1" stroke="#c5c5c1" stroke-width="1.51"/><path d="M430,605L484,704L580,681Z" fill="#cdcdc9" stroke="#cdcdc9" stroke-width="1.51"/><path d="M583,437L507,410L538,514Z" fill="#d6d6d3" stroke="#d6d6d3" stroke-width="1.51"/><path d="M538,514L430,605L611,637Z" fill="#d0d0cc" stroke="#d0d0cc" stroke-width="1.51"/><path d="M570,303L507,410L583,437Z" fill="#d9d9d6" stroke="#d9d9d6" stroke-width="1.51"/><path d="M1006,721L1042,680L986,638Z" fill="#bcbcb6" stroke="#bcbcb6" stroke-width="1.51"/><path d="M986,638L1081,580L951,532Z" fill="#c1c1bc" stroke="#c1c1bc" stroke-width="1.51"/><path d="M951,532L992,359L901,419Z" fill="#cacac5" stroke="#cacac5" stroke-width="1.51"/><path d="M859,320L752,274L740,374Z" fill="#d5d5d2" stroke="#d5d5d2" stroke-width="1.51"/><path d="M658,333L570,303L583,437Z" fill="#d9d9d6" stroke="#d9d9d6" stroke-width="1.51"/><path d="M507,410L444,522L538,514Z" fill="#d6d6d2" stroke="#d6d6d2" stroke-width="1.51"/><path d="M658,768L736,903L769,808Z" fill="#bebeb9" stroke="#bebeb9" stroke-width="1.51"/><path d="M769,808L908,935L899,776Z" fill="#b9b9b3" stroke="#b9b9b3" stroke-width="1.51"/><path d="M899,776L977,832L1006,721Z" fill="#b8b8b3" stroke="#b8b8b3" stroke-width="1.51"/><path d="M646,930L736,903L658,768Z" fill="#bdbdb8" stroke="#bdbdb8" stroke-width="1.51"/><path d="M1082,473L992,359L951,532Z" fill="#c7c7c2" stroke="#c7c7c2" stroke-width="1.51"/><path d="M859,320L793,235L752,274Z" fill="#d6d6d3" stroke="#d6d6d3" stroke-width="1.51"/><path d="M1042,680L1081,580L986,638Z" fill="#bdbdb8" stroke="#bdbdb8" stroke-width="1.51"/><path d="M444,522L430,605L538,514Z" fill="#d3d3d0" stroke="#d3d3d0" stroke-width="1.51"/><path d="M484,704L536,827L580,681Z" fill="#c8c8c4" stroke="#c8c8c4" stroke-width="1.51"/><path d="M544,868L536,827L452,799Z" fill="#c4c4bf" stroke="#c4c4bf" stroke-width="1.51"/><path d="M630,176L570,303L658,333Z" fill="#ddddda" stroke="#ddddda" stroke-width="1.51"/><path d="M908,935L977,832L899,776Z" fill="#b6b6b0" stroke="#b6b6b0" stroke-width="1.51"/><path d="M1006,721L1079,796L1042,680Z" fill="#b8b8b3" stroke="#b8b8b3" stroke-width="1.51"/><path d="M992,359L967,313L901,419Z" fill="#cdcdc9" stroke="#cdcdc9" stroke-width="1.51"/><path d="M1081,580L1082,473L951,532Z" fill="#c3c3bd" stroke="#c3c3bd" stroke-width="1.51"/><path d="M992,359L1110,304L967,313Z" fill="#cdcdc9" stroke="#cdcdc9" stroke-width="1.51"/><path d="M849,215L793,235L859,320Z" fill="#d6d6d3" stroke="#d6d6d3" stroke-width="1.51"/><path d="M752,274L630,176L658,333Z" fill="#dbdbd9" stroke="#dbdbd9" stroke-width="1.51"/><path d="M536,827L544,868L658,768Z" fill="#c3c2be" stroke="#c3c2be" stroke-width="1.51"/><path d="M452,799L536,827L484,704Z" fill="#c7c7c3" stroke="#c7c7c3" stroke-width="1.51"/><path d="M736,903L908,935L769,808Z" fill="#b8b8b3" stroke="#b8b8b3" stroke-width="1.51"/><path d="M544,868L646,930L658,768Z" fill="#bfbfbb" stroke="#bfbfbb" stroke-width="1.51"/><path d="M1082,473L1065,372L992,359Z" fill="#c9c9c4" stroke="#c9c9c4" stroke-width="1.51"/><path d="M402,730L452,799L484,704Z" fill="#cacac6" stroke="#cacac6" stroke-width="1.51"/><path d="M702,126L630,176L752,274Z" fill="#dededc" stroke="#dededc" stroke-width="1.51"/><path d="M967,313L849,215L859,320Z" fill="#d4d4d0" stroke="#d4d4d0" stroke-width="1.51"/><path d="M1014,166L849,215L967,313Z" fill="#d5d5d1" stroke="#d5d5d1" stroke-width="1.51"/><path d="M1082,473L1154,388L1065,372Z" fill="#c7c7c2" stroke="#c7c7c2" stroke-width="1.51"/><path d="M1081,580L1139,572L1082,473Z" fill="#c0c0bb" stroke="#c0c0bb" stroke-width="1.51"/><path d="M1168,720L1139,572L1081,580Z" fill="#bbbbb5" stroke="#bbbbb5" stroke-width="1.51"/><path d="M1168,720L1081,580L1042,680Z" fill="#babab5" stroke="#babab5" stroke-width="1.51"/><path d="M369,609L402,730L430,605Z" fill="#d1d1cd" stroke="#d1d1cd" stroke-width="1.51"/><path d="M430,605L402,730L484,704Z" fill="#cececa" stroke="#cececa" stroke-width="1.51"/><path d="M889,963L908,935L736,903Z" fill="#b6b6b0" stroke="#b6b6b0" stroke-width="1.51"/><path d="M444,522L371,542L430,605Z" fill="#d5d5d1" stroke="#d5d5d1" stroke-width="1.51"/><path d="M404,414L371,542L444,522Z" fill="#d8d8d5" stroke="#d8d8d5" stroke-width="1.51"/><path d="M404,414L444,522L507,410Z" fill="#d9d9d6" stroke="#d9d9d6" stroke-width="1.51"/><path d="M371,542L369,609L430,605Z" fill="#d4d4d1" stroke="#d4d4d1" stroke-width="1.51"/><path d="M436,290L404,414L507,410Z" fill="#dddddb" stroke="#dddddb" stroke-width="1.51"/><path d="M1050,945L1079,796L977,832Z" fill="#b2b2ac" stroke="#b2b2ac" stroke-width="1.51"/><path d="M977,832L1079,796L1006,721Z" fill="#b6b6b1" stroke="#b6b6b1" stroke-width="1.51"/><path d="M402,730L402,763L452,799Z" fill="#cacac6" stroke="#cacac6" stroke-width="1.51"/><path d="M510,988L646,930L544,868Z" fill="#bfbfba" stroke="#bfbfba" stroke-width="1.51"/><path d="M236,766L402,763L402,730Z" fill="#cdcdc9" stroke="#cdcdc9" stroke-width="1.51"/><path d="M908,935L957,964L977,832Z" fill="#b3b3ad" stroke="#b3b3ad" stroke-width="1.51"/><path d="M783,1037L889,963L736,903Z" fill="#b7b7b2" stroke="#b7b7b2" stroke-width="1.51"/><path d="M702,126L752,274L793,235Z" fill="#dcdcd9" stroke="#dcdcd9" stroke-width="1.51"/><path d="M570,303L436,290L507,410Z" fill="#dddddb" stroke="#dddddb" stroke-width="1.51"/><path d="M1139,572L1171,467L1082,473Z" fill="#c1c1bc" stroke="#c1c1bc" stroke-width="1.51"/><path d="M1241,588L1171,467L1139,572Z" fill="#bdbdb8" stroke="#bdbdb8" stroke-width="1.51"/><path d="M428,199L436,290L570,303Z" fill="#e2e2df" stroke="#e2e2df" stroke-width="1.51"/><path d="M889,963L957,964L908,935Z" fill="#b4b4ae" stroke="#b4b4ae" stroke-width="1.51"/><path d="M1079,796L1168,720L1042,680Z" fill="#b6b6b1" stroke="#b6b6b1" stroke-width="1.51"/><path d="M1149,777L1168,720L1079,796Z" fill="#b4b4ae" stroke="#b4b4ae" stroke-width="1.51"/><path d="M1143,871L1149,777L1079,796Z" fill="#b1b1ac" stroke="#b1b1ac" stroke-width="1.51"/><path d="M1065,372L1110,304L992,359Z" fill="#cbcbc7" stroke="#cbcbc7" stroke-width="1.51"/><path d="M1171,467L1154,388L1082,473Z" fill="#c4c4bf" stroke="#c4c4bf" stroke-width="1.51"/><path d="M646,930L650,1013L736,903Z" fill="#bbbbb6" stroke="#bbbbb6" stroke-width="1.51"/><path d="M889,963L908,1099L957,964Z" fill="#b4b4ae" stroke="#b4b4ae" stroke-width="1.51"/><path d="M532,1017L650,1013L646,930Z" fill="#bebeb8" stroke="#bebeb8" stroke-width="1.51"/><path d="M476,945L544,868L452,799Z" fill="#c3c3be" stroke="#c3c3be" stroke-width="1.51"/><path d="M957,964L1014,944L977,832Z" fill="#b2b2ac" stroke="#b2b2ac" stroke-width="1.51"/><path d="M1154,388L1110,304L1065,372Z" fill="#c9c9c5" stroke="#c9c9c5" stroke-width="1.51"/><path d="M630,176L556,160L570,303Z" fill="#e1e1de" stroke="#e1e1de" stroke-width="1.51"/><path d="M783,66L702,126L793,235Z" fill="#dfdfdc" stroke="#dfdfdc" stroke-width="1.51"/><path d="M828,76L793,235L849,215Z" fill="#dbdbd8" stroke="#dbdbd8" stroke-width="1.51"/><path d="M650,1013L783,1037L736,903Z" fill="#babab5" stroke="#babab5" stroke-width="1.51"/><path d="M1075,1007L1050,945L1014,944Z" fill="#b0b0aa" stroke="#b0b0aa" stroke-width="1.51"/><path d="M338,916L476,945L452,799Z" fill="#c4c4bf" stroke="#c4c4bf" stroke-width="1.51"/><path d="M592,117L556,160L630,176Z" fill="#e4e4e2" stroke="#e4e4e2" stroke-width="1.51"/><path d="M1075,1007L1014,944L1039,1062Z" fill="#b0b0aa" stroke="#b0b0aa" stroke-width="1.51"/><path d="M1014,944L1050,945L977,832Z" fill="#b1b1ab" stroke="#b1b1ab" stroke-width="1.51"/><path d="M436,290L380,299L404,414Z" fill="#e0e0de" stroke="#e0e0de" stroke-width="1.51"/><path d="M404,414L231,460L371,542Z" fill="#dbdbd9" stroke="#dbdbd9" stroke-width="1.51"/><path d="M428,199L380,299L436,290Z" fill="#e4e4e2" stroke="#e4e4e2" stroke-width="1.51"/><path d="M1110,304L1077,233L967,313Z" fill="#cfcfcb" stroke="#cfcfcb" stroke-width="1.51"/><path d="M1161,286L1077,233L1110,304Z" fill="#cdcdc9" stroke="#cdcdc9" stroke-width="1.51"/><path d="M476,945L510,988L544,868Z" fill="#c1c1bc" stroke="#c1c1bc" stroke-width="1.51"/><path d="M778,1132L908,1099L783,1037Z" fill="#b7b7b1" stroke="#b7b7b1" stroke-width="1.51"/><path d="M1149,777L1254,802L1168,720Z" fill="#b2b2ac" stroke="#b2b2ac" stroke-width="1.51"/><path d="M1050,945L1143,871L1079,796Z" fill="#b0b0aa" stroke="#b0b0aa" stroke-width="1.51"/><path d="M1313,729L1241,588L1168,720Z" fill="#b5b5af" stroke="#b5b5af" stroke-width="1.51"/><path d="M1168,720L1241,588L1139,572Z" fill="#b9b9b4" stroke="#b9b9b4" stroke-width="1.51"/><path d="M1277,407L1161,286L1154,388Z" fill="#c6c6c2" stroke="#c6c6c2" stroke-width="1.51"/><path d="M1077,233L1014,166L967,313Z" fill="#d2d2ce" stroke="#d2d2ce" stroke-width="1.51"/><path d="M405,1035L532,1017L510,988Z" fill="#c2c2bc" stroke="#c2c2bc" stroke-width="1.51"/><path d="M510,988L532,1017L646,930Z" fill="#bfbfba" stroke="#bfbfba" stroke-width="1.51"/><path d="M556,160L428,199L570,303Z" fill="#e2e2e0" stroke="#e2e2e0" stroke-width="1.51"/><path d="M702,126L592,117L630,176Z" fill="#e3e3e0" stroke="#e3e3e0" stroke-width="1.51"/><path d="M1154,388L1161,286L1110,304Z" fill="#c9c9c6" stroke="#c9c9c6" stroke-width="1.51"/><path d="M1053,93L1010,109L1014,166Z" fill="#d7d7d4" stroke="#d7d7d4" stroke-width="1.51"/><path d="M1277,407L1154,388L1171,467Z" fill="#c3c3be" stroke="#c3c3be" stroke-width="1.51"/><path d="M462,114L428,199L556,160Z" fill="#e7e7e5" stroke="#e7e7e5" stroke-width="1.51"/><path d="M380,299L298,368L404,414Z" fill="#e1e1de" stroke="#e1e1de" stroke-width="1.51"/><path d="M371,542L241,586L369,609Z" fill="#d7d7d3" stroke="#d7d7d3" stroke-width="1.51"/><path d="M369,609L243,663L402,730Z" fill="#d2d2ce" stroke="#d2d2ce" stroke-width="1.51"/><path d="M244,320L298,368L380,299Z" fill="#e4e4e1" stroke="#e4e4e1" stroke-width="1.51"/><path d="M1010,109L828,76L849,215Z" fill="#dbdbd8" stroke="#dbdbd8" stroke-width="1.51"/><path d="M702,126L682,16L592,117Z" fill="#e5e5e3" stroke="#e5e5e3" stroke-width="1.51"/><path d="M231,460L241,586L371,542Z" fill="#dbdbd7" stroke="#dbdbd7" stroke-width="1.51"/><path d="M402,763L338,916L452,799Z" fill="#c8c8c4" stroke="#c8c8c4" stroke-width="1.51"/><path d="M828,76L783,66L793,235Z" fill="#dededc" stroke="#dededc" stroke-width="1.51"/><path d="M241,586L243,663L369,609Z" fill="#d6d6d3" stroke="#d6d6d3" stroke-width="1.51"/><path d="M476,945L405,1035L510,988Z" fill="#c2c2bd" stroke="#c2c2bd" stroke-width="1.51"/><path d="M1241,588L1273,508L1171,467Z" fill="#bdbdb8" stroke="#bdbdb8" stroke-width="1.51"/><path d="M1352,595L1273,508L1241,588Z" fill="#b9b9b4" stroke="#b9b9b4" stroke-width="1.51"/><path d="M1050,945L1183,993L1143,871Z" fill="#adada7" stroke="#adada7" stroke-width="1.51"/><path d="M1039,1062L1014,944L957,964Z" fill="#b1b1ab" stroke="#b1b1ab" stroke-width="1.51"/><path d="M1014,166L1010,109L849,215Z" fill="#d8d8d5" stroke="#d8d8d5" stroke-width="1.51"/><path d="M745,11L702,126L783,66Z" fill="#e3e3e1" stroke="#e3e3e1" stroke-width="1.51"/><path d="M1053,93L1014,166L1149,155Z" fill="#d6d6d2" stroke="#d6d6d2" stroke-width="1.51"/><path d="M236,766L338,916L402,763Z" fill="#cbcbc6" stroke="#cbcbc6" stroke-width="1.51"/><path d="M298,368L231,460L404,414Z" fill="#dfdfdd" stroke="#dfdfdd" stroke-width="1.51"/><path d="M197,795L236,766L153,664Z" fill="#d2d2cf" stroke="#d2d2cf" stroke-width="1.51"/><path d="M783,1037L908,1099L889,963Z" fill="#b6b6b0" stroke="#b6b6b0" stroke-width="1.51"/><path d="M663,1121L783,1037L650,1013Z" fill="#bbbbb5" stroke="#bbbbb5" stroke-width="1.51"/><path d="M1143,871L1254,802L1149,777Z" fill="#b0b0aa" stroke="#b0b0aa" stroke-width="1.51"/><path d="M1293,870L1254,802L1143,871Z" fill="#adada6" stroke="#adada6" stroke-width="1.51"/><path d="M602,1130L663,1121L650,1013Z" fill="#bdbdb7" stroke="#bdbdb7" stroke-width="1.51"/><path d="M602,1130L650,1013L532,1017Z" fill="#bebeb9" stroke="#bebeb9" stroke-width="1.51"/><path d="M1273,508L1277,407L1171,467Z" fill="#c0bfbb" stroke="#c0bfbb" stroke-width="1.51"/><path d="M1149,155L1014,166L1077,233Z" fill="#d3d3cf" stroke="#d3d3cf" stroke-width="1.51"/><path d="M428,199L372,167L380,299Z" fill="#e6e6e4" stroke="#e6e6e4" stroke-width="1.51"/><path d="M298,368L181,340L231,460Z" fill="#e3e3e1" stroke="#e3e3e1" stroke-width="1.51"/><path d="M592,117L462,114L556,160Z" fill="#e6e6e4" stroke="#e6e6e4" stroke-width="1.51"/><path d="M574,-29L462,114L592,117Z" fill="#eaeae8" stroke="#eaeae8" stroke-width="1.51"/><path d="M187,596L243,663L241,586Z" fill="#d8d8d5" stroke="#d8d8d5" stroke-width="1.51"/><path d="M243,663L236,766L402,730Z" fill="#d1d1cd" stroke="#d1d1cd" stroke-width="1.51"/><path d="M663,1121L778,1132L783,1037Z" fill="#b9b9b4" stroke="#b9b9b4" stroke-width="1.51"/><path d="M1075,1007L1183,993L1050,945Z" fill="#aeaea8" stroke="#aeaea8" stroke-width="1.51"/><path d="M995,1112L1039,1062L957,964Z" fill="#b1b1ab" stroke="#b1b1ab" stroke-width="1.51"/><path d="M462,114L372,167L428,199Z" fill="#e9e9e7" stroke="#e9e9e7" stroke-width="1.51"/><path d="M146,516L187,596L241,586Z" fill="#dbdbd8" stroke="#dbdbd8" stroke-width="1.51"/><path d="M745,11L682,16L702,126Z" fill="#e5e5e3" stroke="#e5e5e3" stroke-width="1.51"/><path d="M745,11L783,66L879,15Z" fill="#e3e3e1" stroke="#e3e3e1" stroke-width="1.51"/><path d="M879,15L783,66L828,76Z" fill="#e2e2df" stroke="#e2e2df" stroke-width="1.51"/><path d="M1010,109L879,15L828,76Z" fill="#dededb" stroke="#dededb" stroke-width="1.51"/><path d="M1149,155L1077,233L1161,286Z" fill="#cfcfcb" stroke="#cfcfcb" stroke-width="1.51"/><path d="M663,1121L602,1130L778,1132Z" fill="#bbbbb6" stroke="#bbbbb6" stroke-width="1.51"/><path d="M436,1143L602,1130L532,1017Z" fill="#c0c0bb" stroke="#c0c0bb" stroke-width="1.51"/><path d="M281,223L244,320L380,299Z" fill="#e6e6e5" stroke="#e6e6e5" stroke-width="1.51"/><path d="M231,460L146,516L241,586Z" fill="#ddddda" stroke="#ddddda" stroke-width="1.51"/><path d="M338,916L405,1035L476,945Z" fill="#c4c4bf" stroke="#c4c4bf" stroke-width="1.51"/><path d="M259,964L405,1035L338,916Z" fill="#c6c6c2" stroke="#c6c6c2" stroke-width="1.51"/><path d="M1254,802L1313,729L1168,720Z" fill="#b1b1ab" stroke="#b1b1ab" stroke-width="1.51"/><path d="M1273,508L1369,490L1277,407Z" fill="#bdbdb8" stroke="#bdbdb8" stroke-width="1.51"/><path d="M943,3L879,15L1010,109Z" fill="#dfdedc" stroke="#dfdedc" stroke-width="1.51"/><path d="M1239,165L1149,155L1161,286Z" fill="#cfcfcb" stroke="#cfcfcb" stroke-width="1.51"/><path d="M778,1132L995,1112L908,1099Z" fill="#b5b5af" stroke="#b5b5af" stroke-width="1.51"/><path d="M908,1099L995,1112L957,964Z" fill="#b3b3ad" stroke="#b3b3ad" stroke-width="1.51"/><path d="M372,167L281,223L380,299Z" fill="#e8e8e6" stroke="#e8e8e6" stroke-width="1.51"/><path d="M1254,802L1342,778L1313,729Z" fill="#aeaea8" stroke="#aeaea8" stroke-width="1.51"/><path d="M1197,1121L1183,993L1075,1007Z" fill="#adada6" stroke="#adada6" stroke-width="1.51"/><path d="M1279,1025L1183,993L1251,1103Z" fill="#aaaaa3" stroke="#aaaaa3" stroke-width="1.51"/><path d="M1313,729L1352,595L1241,588Z" fill="#b5b5af" stroke="#b5b5af" stroke-width="1.51"/><path d="M236,766L244,935L338,916Z" fill="#c9c9c5" stroke="#c9c9c5" stroke-width="1.51"/><path d="M153,664L236,766L243,663Z" fill="#d4d4d1" stroke="#d4d4d1" stroke-width="1.51"/><path d="M879,15L785,-83L745,11Z" fill="#e5e5e3" stroke="#e5e5e3" stroke-width="1.51"/><path d="M1065,12L943,3L1010,109Z" fill="#ddddda" stroke="#ddddda" stroke-width="1.51"/><path d="M1065,12L1010,109L1053,93Z" fill="#dadad7" stroke="#dadad7" stroke-width="1.51"/><path d="M187,596L153,664L243,663Z" fill="#d7d7d4" stroke="#d7d7d4" stroke-width="1.51"/><path d="M23,596L153,664L187,596Z" fill="#dbdbd8" stroke="#dbdbd8" stroke-width="1.51"/><path d="M1183,993L1293,870L1143,871Z" fill="#ababa4" stroke="#ababa4" stroke-width="1.51"/><path d="M1313,729L1382,690L1352,595Z" fill="#b2b2ac" stroke="#b2b2ac" stroke-width="1.51"/><path d="M139,376L146,516L231,460Z" fill="#e2e2e0" stroke="#e2e2e0" stroke-width="1.51"/><path d="M181,340L298,368L244,320Z" fill="#e5e5e3" stroke="#e5e5e3" stroke-width="1.51"/><path d="M1293,870L1342,778L1254,802Z" fill="#adaca6" stroke="#adaca6" stroke-width="1.51"/><path d="M1239,165L1158,105L1149,155Z" fill="#d2d2ce" stroke="#d2d2ce" stroke-width="1.51"/><path d="M1352,595L1369,490L1273,508Z" fill="#b9b9b4" stroke="#b9b9b4" stroke-width="1.51"/><path d="M1414,438L1369,490L1453,506Z" fill="#babab4" stroke="#babab4" stroke-width="1.51"/><path d="M1149,155L1158,105L1053,93Z" fill="#d5d5d2" stroke="#d5d5d2" stroke-width="1.51"/><path d="M1301,273L1161,286L1277,407Z" fill="#c7c7c2" stroke="#c7c7c2" stroke-width="1.51"/><path d="M197,795L244,935L236,766Z" fill="#cdcdc9" stroke="#cdcdc9" stroke-width="1.51"/><path d="M125,861L244,935L197,795Z" fill="#cdcdc9" stroke="#cdcdc9" stroke-width="1.51"/><path d="M122,208L181,340L244,320Z" fill="#eaeae8" stroke="#eaeae8" stroke-width="1.51"/><path d="M1334,288L1301,273L1277,407Z" fill="#c5c5c0" stroke="#c5c5c0" stroke-width="1.51"/><path d="M244,935L259,964L338,916Z" fill="#c8c8c3" stroke="#c8c8c3" stroke-width="1.51"/><path d="M704,-102L574,-29L682,16Z" fill="#eaeae8" stroke="#eaeae8" stroke-width="1.51"/><path d="M682,16L574,-29L592,117Z" fill="#e9e9e7" stroke="#e9e9e7" stroke-width="1.51"/><path d="M462,114L335,98L372,167Z" fill="#ececea" stroke="#ececea" stroke-width="1.51"/><path d="M372,167L335,98L281,223Z" fill="#ececea" stroke="#ececea" stroke-width="1.51"/><path d="M704,-102L682,16L745,11Z" fill="#e8e8e6" stroke="#e8e8e6" stroke-width="1.51"/><path d="M1342,778L1382,690L1313,729Z" fill="#afafa9" stroke="#afafa9" stroke-width="1.51"/><path d="M1301,273L1239,165L1161,286Z" fill="#cbcbc7" stroke="#cbcbc7" stroke-width="1.51"/><path d="M405,1035L408,1115L532,1017Z" fill="#c3c3be" stroke="#c3c3be" stroke-width="1.51"/><path d="M280,1122L408,1115L405,1035Z" fill="#c5c5c0" stroke="#c5c5c0" stroke-width="1.51"/><path d="M393,5L335,98L462,114Z" fill="#eeeeed" stroke="#eeeeed" stroke-width="1.51"/><path d="M281,223L122,208L244,320Z" fill="#ebebe9" stroke="#ebebe9" stroke-width="1.51"/><path d="M1158,105L1065,12L1053,93Z" fill="#d8d8d5" stroke="#d8d8d5" stroke-width="1.51"/><path d="M909,-87L785,-83L879,15Z" fill="#e3e3e1" stroke="#e3e3e1" stroke-width="1.51"/><path d="M1178,21L1065,12L1158,105Z" fill="#d8d8d5" stroke="#d8d8d5" stroke-width="1.51"/><path d="M408,1115L436,1143L532,1017Z" fill="#c2c2bd" stroke="#c2c2bd" stroke-width="1.51"/><path d="M602,1130L436,1143L778,1132Z" fill="#bebeb9" stroke="#bebeb9" stroke-width="1.51"/><path d="M1414,438L1334,288L1277,407Z" fill="#c1c1bc" stroke="#c1c1bc" stroke-width="1.51"/><path d="M1301,273L1381,190L1239,165Z" fill="#cacac6" stroke="#cacac6" stroke-width="1.51"/><path d="M58,728L197,795L153,664Z" fill="#d5d5d1" stroke="#d5d5d1" stroke-width="1.51"/><path d="M181,340L139,376L231,460Z" fill="#e4e4e2" stroke="#e4e4e2" stroke-width="1.51"/><path d="M61,402L139,376L65,309Z" fill="#e9e9e8" stroke="#e9e9e8" stroke-width="1.51"/><path d="M909,-87L879,15L943,3Z" fill="#e2e2df" stroke="#e2e2df" stroke-width="1.51"/><path d="M1369,490L1414,438L1277,407Z" fill="#bdbdb8" stroke="#bdbdb8" stroke-width="1.51"/><path d="M1453,506L1369,490L1352,595Z" fill="#b7b7b2" stroke="#b7b7b2" stroke-width="1.51"/><path d="M335,98L298,76L281,223Z" fill="#eeeeed" stroke="#eeeeed" stroke-width="1.51"/><path d="M427,-38L393,5L462,114Z" fill="#efefee" stroke="#efefee" stroke-width="1.51"/><path d="M427,-38L462,114L574,-29Z" fill="#eeeeed" stroke="#eeeeed" stroke-width="1.51"/><path d="M393,5L298,76L335,98Z" fill="#f1f1ef" stroke="#f1f1ef" stroke-width="1.51"/><path d="M785,-83L704,-102L745,11Z" fill="#e7e7e5" stroke="#e7e7e5" stroke-width="1.51"/><path d="M785,-83L909,-87L704,-102Z" fill="#e5e5e3" stroke="#e5e5e3" stroke-width="1.51"/><path d="M967,-92L909,-87L943,3Z" fill="#e1e1de" stroke="#e1e1de" stroke-width="1.51"/><path d="M1342,778L1437,768L1382,690Z" fill="#adada6" stroke="#adada6" stroke-width="1.51"/><path d="M1435,911L1437,768L1342,778Z" fill="#a9a9a2" stroke="#a9a9a2" stroke-width="1.51"/><path d="M1183,993L1279,1025L1293,870Z" fill="#a9a9a3" stroke="#a9a9a3" stroke-width="1.51"/><path d="M1197,1121L1075,1007L1039,1062Z" fill="#aeaea8" stroke="#aeaea8" stroke-width="1.51"/><path d="M259,964L280,1122L405,1035Z" fill="#c7c6c2" stroke="#c7c6c2" stroke-width="1.51"/><path d="M408,1115L280,1122L436,1143Z" fill="#c5c5c0" stroke="#c5c5c0" stroke-width="1.51"/><path d="M124,994L196,1063L259,964Z" fill="#cacac6" stroke="#cacac6" stroke-width="1.51"/><path d="M58,728L125,861L197,795Z" fill="#d2d2ce" stroke="#d2d2ce" stroke-width="1.51"/><path d="M23,596L187,596L146,516Z" fill="#dededb" stroke="#dededb" stroke-width="1.51"/><path d="M139,376L64,495L146,516Z" fill="#e3e3e1" stroke="#e3e3e1" stroke-width="1.51"/><path d="M61,402L64,495L139,376Z" fill="#e6e6e4" stroke="#e6e6e4" stroke-width="1.51"/><path d="M995,1112L1197,1121L1039,1062Z" fill="#afafa9" stroke="#afafa9" stroke-width="1.51"/><path d="M778,1132L1197,1121L995,1112Z" fill="#b2b2ac" stroke="#b2b2ac" stroke-width="1.51"/><path d="M1465,1123L1197,1121L778,1132Z" fill="#adada6" stroke="#adada6" stroke-width="1.51"/><path d="M533,-92L427,-38L574,-29Z" fill="#eeeeed" stroke="#eeeeed" stroke-width="1.51"/><path d="M393,5L260,10L298,76Z" fill="#f3f3f2" stroke="#f3f3f2" stroke-width="1.51"/><path d="M1065,12L967,-92L943,3Z" fill="#dfdfdd" stroke="#dfdfdd" stroke-width="1.51"/><path d="M1231,59L1178,21L1158,105Z" fill="#d5d5d2" stroke="#d5d5d2" stroke-width="1.51"/><path d="M1231,59L1158,105L1239,165Z" fill="#d3d3cf" stroke="#d3d3cf" stroke-width="1.51"/><path d="M1381,190L1301,273L1334,288Z" fill="#c7c7c3" stroke="#c7c7c3" stroke-width="1.51"/><path d="M1499,631L1453,506L1352,595Z" fill="#b4b4ae" stroke="#b4b4ae" stroke-width="1.51"/><path d="M1499,631L1352,595L1382,690Z" fill="#b2b2ac" stroke="#b2b2ac" stroke-width="1.51"/><path d="M909,-87L967,-92L704,-102Z" fill="#e3e3e1" stroke="#e3e3e1" stroke-width="1.51"/><path d="M1076,-93L967,-92L1065,12Z" fill="#dededb" stroke="#dededb" stroke-width="1.51"/><path d="M1455,315L1334,288L1414,438Z" fill="#c0c0bc" stroke="#c0c0bc" stroke-width="1.51"/><path d="M1343,115L1231,59L1239,165Z" fill="#d0d0cc" stroke="#d0d0cc" stroke-width="1.51"/><path d="M1435,911L1342,778L1293,870Z" fill="#a9a9a2" stroke="#a9a9a2" stroke-width="1.51"/><path d="M704,-102L533,-92L574,-29Z" fill="#ebebea" stroke="#ebebea" stroke-width="1.51"/><path d="M23,596L58,728L153,664Z" fill="#dadad7" stroke="#dadad7" stroke-width="1.51"/><path d="M64,495L23,596L146,516Z" fill="#e1e1de" stroke="#e1e1de" stroke-width="1.51"/><path d="M65,309L139,376L181,340Z" fill="#e9e9e7" stroke="#e9e9e7" stroke-width="1.51"/><path d="M1197,1121L1251,1103L1183,993Z" fill="#ababa4" stroke="#ababa4" stroke-width="1.51"/><path d="M1539,804L1479,739L1437,768Z" fill="#aaaaa4" stroke="#aaaaa4" stroke-width="1.51"/><path d="M196,1063L280,1122L259,964Z" fill="#c9c9c5" stroke="#c9c9c5" stroke-width="1.51"/><path d="M1453,506L1472,434L1414,438Z" fill="#babab4" stroke="#babab4" stroke-width="1.51"/><path d="M1577,459L1472,434L1453,506Z" fill="#b9b9b4" stroke="#b9b9b4" stroke-width="1.51"/><path d="M-11,499L23,596L64,495Z" fill="#e3e2e0" stroke="#e3e2e0" stroke-width="1.51"/><path d="M298,76L122,208L281,223Z" fill="#eeeeed" stroke="#eeeeed" stroke-width="1.51"/><path d="M124,59L122,208L298,76Z" fill="#f3f3f2" stroke="#f3f3f2" stroke-width="1.51"/><path d="M1455,315L1381,190L1334,288Z" fill="#c5c5c0" stroke="#c5c5c0" stroke-width="1.51"/><path d="M124,994L259,964L244,935Z" fill="#cacac6" stroke="#cacac6" stroke-width="1.51"/><path d="M124,994L244,935L125,861Z" fill="#cbcbc7" stroke="#cbcbc7" stroke-width="1.51"/><path d="M1437,768L1479,739L1382,690Z" fill="#acaca6" stroke="#acaca6" stroke-width="1.51"/><path d="M1407,945L1293,870L1279,1025Z" fill="#a7a7a0" stroke="#a7a7a0" stroke-width="1.51"/><path d="M122,208L65,309L181,340Z" fill="#ececea" stroke="#ececea" stroke-width="1.51"/><path d="M61,402L-11,499L64,495Z" fill="#e6e6e3" stroke="#e6e6e3" stroke-width="1.51"/><path d="M244,-96L260,10L393,5Z" fill="#f5f5f4" stroke="#f5f5f4" stroke-width="1.51"/><path d="M533,-92L493,-116L427,-38Z" fill="#efefee" stroke="#efefee" stroke-width="1.51"/><path d="M704,-102L493,-116L533,-92Z" fill="#ececeb" stroke="#ececeb" stroke-width="1.51"/><path d="M1173,-136L493,-116L704,-102Z" fill="#e5e5e3" stroke="#e5e5e3" stroke-width="1.51"/><path d="M1479,739L1499,631L1382,690Z" fill="#aeaea8" stroke="#aeaea8" stroke-width="1.51"/><path d="M1173,-136L1076,-93L1178,21Z" fill="#dadad7" stroke="#dadad7" stroke-width="1.51"/><path d="M1178,21L1076,-93L1065,12Z" fill="#dbdbd8" stroke="#dbdbd8" stroke-width="1.51"/><path d="M967,-92L1173,-136L704,-102Z" fill="#e0e0de" stroke="#e0e0de" stroke-width="1.51"/><path d="M1232,-42L1178,21L1231,59Z" fill="#d7d7d4" stroke="#d7d7d4" stroke-width="1.51"/><path d="M1360,1043L1407,945L1279,1025Z" fill="#a7a7a0" stroke="#a7a7a0" stroke-width="1.51"/><path d="M1472,434L1455,315L1414,438Z" fill="#bdbdb8" stroke="#bdbdb8" stroke-width="1.51"/><path d="M1471,58L1343,115L1381,190Z" fill="#ccccc8" stroke="#ccccc8" stroke-width="1.51"/><path d="M1381,190L1343,115L1239,165Z" fill="#ccccc8" stroke="#ccccc8" stroke-width="1.51"/><path d="M23,792L125,861L58,728Z" fill="#d4d3d0" stroke="#d4d3d0" stroke-width="1.51"/><path d="M26,912L124,994L125,861Z" fill="#cececa" stroke="#cececa" stroke-width="1.51"/><path d="M409,-110L393,5L427,-38Z" fill="#f1f1f0" stroke="#f1f1f0" stroke-width="1.51"/><path d="M1407,945L1435,911L1293,870Z" fill="#a6a69f" stroke="#a6a69f" stroke-width="1.51"/><path d="M1407,945L1440,974L1435,911Z" fill="#a4a49d" stroke="#a4a49d" stroke-width="1.51"/><path d="M1251,1103L1337,1071L1279,1025Z" fill="#a8a8a2" stroke="#a8a8a2" stroke-width="1.51"/><path d="M1337,1071L1360,1043L1279,1025Z" fill="#a7a7a0" stroke="#a7a7a0" stroke-width="1.51"/><path d="M-11,796L23,792L58,728Z" fill="#d6d6d3" stroke="#d6d6d3" stroke-width="1.51"/><path d="M-21,366L-11,499L61,402Z" fill="#e8e8e7" stroke="#e8e8e7" stroke-width="1.51"/><path d="M-44,687L-11,796L58,728Z" fill="#d9d9d6" stroke="#d9d9d6" stroke-width="1.51"/><path d="M493,-116L409,-110L427,-38Z" fill="#f0f0ef" stroke="#f0f0ef" stroke-width="1.51"/><path d="M1403,-26L1232,-42L1231,59Z" fill="#d5d5d2" stroke="#d5d5d2" stroke-width="1.51"/><path d="M65,309L-21,366L61,402Z" fill="#ebebea" stroke="#ebebea" stroke-width="1.51"/><path d="M122,208L78,177L65,309Z" fill="#f0f0ef" stroke="#f0f0ef" stroke-width="1.51"/><path d="M124,59L78,177L122,208Z" fill="#f4f4f2" stroke="#f4f4f2" stroke-width="1.51"/><path d="M1540,984L1440,974L1465,1123Z" fill="#a4a49d" stroke="#a4a49d" stroke-width="1.51"/><path d="M1360,1043L1440,974L1407,945Z" fill="#a5a59e" stroke="#a5a59e" stroke-width="1.51"/><path d="M1539,804L1555,667L1479,739Z" fill="#acaca5" stroke="#acaca5" stroke-width="1.51"/><path d="M1555,667L1553,641L1499,631Z" fill="#b0b0aa" stroke="#b0b0aa" stroke-width="1.51"/><path d="M-44,687L58,728L23,596Z" fill="#dcdcd9" stroke="#dcdcd9" stroke-width="1.51"/><path d="M23,792L26,912L125,861Z" fill="#d1d1ce" stroke="#d1d1ce" stroke-width="1.51"/><path d="M1555,667L1499,631L1479,739Z" fill="#afafa8" stroke="#afafa8" stroke-width="1.51"/><path d="M1499,631L1577,459L1453,506Z" fill="#b6b6b0" stroke="#b6b6b0" stroke-width="1.51"/><path d="M1613,292L1496,225L1455,315Z" fill="#c3c3be" stroke="#c3c3be" stroke-width="1.51"/><path d="M124,994L67,1099L196,1063Z" fill="#cdcdc9" stroke="#cdcdc9" stroke-width="1.51"/><path d="M-11,796L26,912L23,792Z" fill="#d3d3d0" stroke="#d3d3d0" stroke-width="1.51"/><path d="M1539,804L1437,768L1435,911Z" fill="#a7a7a1" stroke="#a7a7a1" stroke-width="1.51"/><path d="M-63,599L-44,687L23,596Z" fill="#dfdfdc" stroke="#dfdfdc" stroke-width="1.51"/><path d="M-41,272L-21,366L65,309Z" fill="#eeeeed" stroke="#eeeeed" stroke-width="1.51"/><path d="M-63,599L23,596L-11,499Z" fill="#e2e2df" stroke="#e2e2df" stroke-width="1.51"/><path d="M1603,882L1539,804L1435,911Z" fill="#a5a59f" stroke="#a5a59f" stroke-width="1.51"/><path d="M78,177L-41,272L65,309Z" fill="#f1f1f0" stroke="#f1f1f0" stroke-width="1.51"/><path d="M260,10L153,29L298,76Z" fill="#f5f5f4" stroke="#f5f5f4" stroke-width="1.51"/><path d="M244,-96L153,29L260,10Z" fill="#f8f8f7" stroke="#f8f8f7" stroke-width="1.51"/><path d="M153,29L124,59L298,76Z" fill="#f5f5f5" stroke="#f5f5f5" stroke-width="1.51"/><path d="M-96,570L-63,599L-11,499Z" fill="#e2e2e0" stroke="#e2e2e0" stroke-width="1.51"/><path d="M26,912L53,1002L124,994Z" fill="#cfcfcb" stroke="#cfcfcb" stroke-width="1.51"/><path d="M196,1063L67,1099L280,1122Z" fill="#cbcbc7" stroke="#cbcbc7" stroke-width="1.51"/><path d="M-21,933L53,1002L26,912Z" fill="#d0d0cc" stroke="#d0d0cc" stroke-width="1.51"/><path d="M1403,-26L1296,-98L1232,-42Z" fill="#d5d5d1" stroke="#d5d5d1" stroke-width="1.51"/><path d="M1455,315L1496,225L1381,190Z" fill="#c4c4c0" stroke="#c4c4c0" stroke-width="1.51"/><path d="M1572,385L1455,315L1472,434Z" fill="#bebeb9" stroke="#bebeb9" stroke-width="1.51"/><path d="M1232,-42L1173,-136L1178,21Z" fill="#d8d8d5" stroke="#d8d8d5" stroke-width="1.51"/><path d="M1076,-93L1173,-136L967,-92Z" fill="#ddddd9" stroke="#ddddd9" stroke-width="1.51"/><path d="M1296,-98L1173,-136L1232,-42Z" fill="#d7d7d4" stroke="#d7d7d4" stroke-width="1.51"/><path d="M1553,641L1577,459L1499,631Z" fill="#b4b4ae" stroke="#b4b4ae" stroke-width="1.51"/><path d="M1647,565L1577,459L1553,641Z" fill="#b5b5af" stroke="#b5b5af" stroke-width="1.51"/><path d="M1577,459L1572,385L1472,434Z" fill="#bbbbb6" stroke="#bbbbb6" stroke-width="1.51"/><path d="M409,-110L244,-96L393,5Z" fill="#f3f3f2" stroke="#f3f3f2" stroke-width="1.51"/><path d="M47,-35L36,73L124,59Z" fill="#fbfbfa" stroke="#fbfbfa" stroke-width="1.51"/><path d="M-159,497L-96,570L-11,499Z" fill="#e4e4e2" stroke="#e4e4e2" stroke-width="1.51"/><path d="M-63,599L-112,720L-44,687Z" fill="#ddddd9" stroke="#ddddd9" stroke-width="1.51"/><path d="M-136,915L-21,933L-11,796Z" fill="#d2d2ce" stroke="#d2d2ce" stroke-width="1.51"/><path d="M-11,796L-21,933L26,912Z" fill="#d2d2ce" stroke="#d2d2ce" stroke-width="1.51"/><path d="M-112,720L-11,796L-44,687Z" fill="#d9d9d6" stroke="#d9d9d6" stroke-width="1.51"/><path d="M36,73L78,177L124,59Z" fill="#f7f7f6" stroke="#f7f7f6" stroke-width="1.51"/><path d="M-70,207L-41,272L78,177Z" fill="#f3f3f2" stroke="#f3f3f2" stroke-width="1.51"/><path d="M-21,366L-159,497L-11,499Z" fill="#e7e7e5" stroke="#e7e7e5" stroke-width="1.51"/><path d="M-20,1034L67,1099L53,1002Z" fill="#d0d0cc" stroke="#d0d0cc" stroke-width="1.51"/><path d="M53,1002L67,1099L124,994Z" fill="#cececa" stroke="#cececa" stroke-width="1.51"/><path d="M280,1122L-9,1145L436,1143Z" fill="#c9c9c5" stroke="#c9c9c5" stroke-width="1.51"/><path d="M1403,-26L1231,59L1343,115Z" fill="#d2d2ce" stroke="#d2d2ce" stroke-width="1.51"/><path d="M-96,570L-112,720L-63,599Z" fill="#dfdfdb" stroke="#dfdfdb" stroke-width="1.51"/><path d="M47,-35L124,59L153,29Z" fill="#fafafa" stroke="#fafafa" stroke-width="1.51"/><path d="M1440,974L1540,984L1435,911Z" fill="#a4a49d" stroke="#a4a49d" stroke-width="1.51"/><path d="M1657,727L1553,641L1555,667Z" fill="#afafa8" stroke="#afafa8" stroke-width="1.51"/><path d="M1657,727L1647,565L1553,641Z" fill="#b0b0aa" stroke="#b0b0aa" stroke-width="1.51"/><path d="M1465,1123L1440,974L1360,1043Z" fill="#a4a49d" stroke="#a4a49d" stroke-width="1.51"/><path d="M1496,225L1471,58L1381,190Z" fill="#c9c9c4" stroke="#c9c9c4" stroke-width="1.51"/><path d="M1613,292L1558,208L1496,225Z" fill="#c4c4c0" stroke="#c4c4c0" stroke-width="1.51"/><path d="M1563,82L1471,58L1496,225Z" fill="#cacac6" stroke="#cacac6" stroke-width="1.51"/><path d="M1471,58L1403,-26L1343,115Z" fill="#cfcfcb" stroke="#cfcfcb" stroke-width="1.51"/><path d="M1572,385L1613,292L1455,315Z" fill="#c0c0bb" stroke="#c0c0bb" stroke-width="1.51"/><path d="M1656,359L1613,292L1572,385Z" fill="#bfbfba" stroke="#bfbfba" stroke-width="1.51"/><path d="M1657,727L1555,667L1539,804Z" fill="#acaca6" stroke="#acaca6" stroke-width="1.51"/><path d="M-112,720L-116,773L-11,796Z" fill="#d7d7d4" stroke="#d7d7d4" stroke-width="1.51"/><path d="M-21,933L-20,1034L53,1002Z" fill="#d1d1cd" stroke="#d1d1cd" stroke-width="1.51"/><path d="M436,1143L1465,1123L778,1132Z" fill="#b5b5af" stroke="#b5b5af" stroke-width="1.51"/><path d="M1197,1121L1465,1123L1251,1103Z" fill="#a8a8a1" stroke="#a8a8a1" stroke-width="1.51"/><path d="M1251,1103L1465,1123L1337,1071Z" fill="#a6a6a0" stroke="#a6a6a0" stroke-width="1.51"/><path d="M1337,1071L1465,1123L1360,1043Z" fill="#a5a59e" stroke="#a5a59e" stroke-width="1.51"/><path d="M-102,982L-20,1034L-21,933Z" fill="#d1d1cd" stroke="#d1d1cd" stroke-width="1.51"/><path d="M1654,922L1603,882L1540,984Z" fill="#a4a49d" stroke="#a4a49d" stroke-width="1.51"/><path d="M1540,984L1603,882L1435,911Z" fill="#a4a49d" stroke="#a4a49d" stroke-width="1.51"/><path d="M1656,359L1572,385L1577,459Z" fill="#bdbdb7" stroke="#bdbdb7" stroke-width="1.51"/><path d="M1558,208L1563,82L1496,225Z" fill="#c8c8c4" stroke="#c8c8c4" stroke-width="1.51"/><path d="M-73,133L-70,207L78,177Z" fill="#f6f6f5" stroke="#f6f6f5" stroke-width="1.51"/><path d="M-156,365L-159,497L-21,366Z" fill="#eaeae8" stroke="#eaeae8" stroke-width="1.51"/><path d="M-96,570L-159,497L-112,720Z" fill="#e0e0de" stroke="#e0e0de" stroke-width="1.51"/><path d="M244,-96L172,-118L153,29Z" fill="#f9f9f8" stroke="#f9f9f8" stroke-width="1.51"/><path d="M36,73L-73,133L78,177Z" fill="#f8f8f7" stroke="#f8f8f7" stroke-width="1.51"/><path d="M409,-110L172,-118L244,-96Z" fill="#f6f6f5" stroke="#f6f6f5" stroke-width="1.51"/><path d="M493,-116L172,-118L409,-110Z" fill="#f3f3f2" stroke="#f3f3f2" stroke-width="1.51"/><path d="M42,-132L172,-118L493,-116Z" fill="#f7f7f6" stroke="#f7f7f6" stroke-width="1.51"/><path d="M1488,-128L1350,-110L1403,-26Z" fill="#d2d2ce" stroke="#d2d2ce" stroke-width="1.51"/><path d="M1403,-26L1350,-110L1296,-98Z" fill="#d3d3d0" stroke="#d3d3d0" stroke-width="1.51"/><path d="M1296,-98L1350,-110L1173,-136Z" fill="#d6d6d3" stroke="#d6d6d3" stroke-width="1.51"/><path d="M1669,784L1657,727L1539,804Z" fill="#aaaaa3" stroke="#aaaaa3" stroke-width="1.51"/><path d="M-156,365L-21,366L-41,272Z" fill="#ededec" stroke="#ededec" stroke-width="1.51"/><path d="M-112,720L-159,497L-116,773Z" fill="#ddddda" stroke="#ddddda" stroke-width="1.51"/><path d="M1704,488L1656,359L1577,459Z" fill="#bbbbb6" stroke="#bbbbb6" stroke-width="1.51"/><path d="M1666,97L1563,82L1558,208Z" fill="#cacac6" stroke="#cacac6" stroke-width="1.51"/><path d="M1704,488L1577,459L1647,565Z" fill="#b7b7b2" stroke="#b7b7b2" stroke-width="1.51"/><path d="M1657,727L1704,488L1647,565Z" fill="#b3b3ad" stroke="#b3b3ad" stroke-width="1.51"/><path d="M1603,882L1669,784L1539,804Z" fill="#a7a7a1" stroke="#a7a7a1" stroke-width="1.51"/><path d="M1654,922L1669,784L1603,882Z" fill="#a6a69f" stroke="#a6a69f" stroke-width="1.51"/><path d="M-161,298L-156,365L-41,272Z" fill="#efefed" stroke="#efefed" stroke-width="1.51"/><path d="M-70,207L-161,298L-41,272Z" fill="#f1f1f0" stroke="#f1f1f0" stroke-width="1.51"/><path d="M172,-118L47,-35L153,29Z" fill="#fbfbfa" stroke="#fbfbfa" stroke-width="1.51"/><path d="M-57,-14L-73,133L36,73Z" fill="#fbfbfb" stroke="#fbfbfb" stroke-width="1.51"/><path d="M-20,1034L-9,1145L67,1099Z" fill="#d0d0cc" stroke="#d0d0cc" stroke-width="1.51"/><path d="M-136,915L-102,982L-21,933Z" fill="#d1d1cd" stroke="#d1d1cd" stroke-width="1.51"/><path d="M-136,915L-11,796L-116,773Z" fill="#d4d4d1" stroke="#d4d4d1" stroke-width="1.51"/><path d="M1471,58L1484,-28L1403,-26Z" fill="#d1d1cd" stroke="#d1d1cd" stroke-width="1.51"/><path d="M1696,193L1558,208L1613,292Z" fill="#c5c5c0" stroke="#c5c5c0" stroke-width="1.51"/><path d="M1546,10L1484,-28L1471,58Z" fill="#d0d0cc" stroke="#d0d0cc" stroke-width="1.51"/><path d="M-180,1084L-9,1145L-20,1034Z" fill="#d1d1cd" stroke="#d1d1cd" stroke-width="1.51"/><path d="M67,1099L-9,1145L280,1122Z" fill="#cdcdc9" stroke="#cdcdc9" stroke-width="1.51"/><path d="M-159,497L-136,915L-116,773Z" fill="#d9d9d6" stroke="#d9d9d6" stroke-width="1.51"/><path d="M1656,359L1686,292L1613,292Z" fill="#c1c1bc" stroke="#c1c1bc" stroke-width="1.51"/><path d="M1669,784L1704,488L1657,727Z" fill="#afafa9" stroke="#afafa9" stroke-width="1.51"/><path d="M-145,198L-161,298L-70,207Z" fill="#f3f3f2" stroke="#f3f3f2" stroke-width="1.51"/><path d="M-156,365L-161,298L-159,497Z" fill="#ebebe9" stroke="#ebebe9" stroke-width="1.51"/><path d="M1646,1027L1654,922L1540,984Z" fill="#a4a49d" stroke="#a4a49d" stroke-width="1.51"/><path d="M1669,784L1646,1027L1704,488Z" fill="#aaaaa4" stroke="#aaaaa4" stroke-width="1.51"/><path d="M1465,1123L1596,1066L1540,984Z" fill="#a4a49d" stroke="#a4a49d" stroke-width="1.51"/><path d="M1704,488L1686,292L1656,359Z" fill="#bebeb9" stroke="#bebeb9" stroke-width="1.51"/><path d="M1563,82L1546,10L1471,58Z" fill="#cececa" stroke="#cececa" stroke-width="1.51"/><path d="M1672,-27L1546,10L1563,82Z" fill="#d0d0cc" stroke="#d0d0cc" stroke-width="1.51"/><path d="M-73,133L-114,137L-70,207Z" fill="#f6f6f6" stroke="#f6f6f6" stroke-width="1.51"/><path d="M-57,-14L-114,137L-73,133Z" fill="#fafafa" stroke="#fafafa" stroke-width="1.51"/><path d="M-114,137L-145,198L-70,207Z" fill="#f5f5f5" stroke="#f5f5f5" stroke-width="1.51"/><path d="M1596,1066L1646,1027L1540,984Z" fill="#a4a49d" stroke="#a4a49d" stroke-width="1.51"/><path d="M1654,922L1646,1027L1669,784Z" fill="#a4a49d" stroke="#a4a49d" stroke-width="1.51"/><path d="M-114,137L-104,-33L-145,198Z" fill="#f9f9f9" stroke="#f9f9f9" stroke-width="1.51"/><path d="M47,-35L-57,-14L36,73Z" fill="#fefefe" stroke="#fefefe" stroke-width="1.51"/><path d="M-74,-63L-57,-14L47,-35Z" fill="#ffffff" stroke="#ffffff" stroke-width="1.51"/><path d="M1173,-136L42,-132L493,-116Z" fill="#ececeb" stroke="#ececeb" stroke-width="1.51"/><path d="M172,-118L42,-132L47,-35Z" fill="#fcfcfc" stroke="#fcfcfc" stroke-width="1.51"/><path d="M1704,488L1696,193L1686,292Z" fill="#c0c0bc" stroke="#c0c0bc" stroke-width="1.51"/><path d="M1686,292L1696,193L1613,292Z" fill="#c4c4bf" stroke="#c4c4bf" stroke-width="1.51"/><path d="M1584,-92L1484,-28L1546,10Z" fill="#d1d1cd" stroke="#d1d1cd" stroke-width="1.51"/><path d="M1584,-92L1488,-128L1484,-28Z" fill="#d1d1cd" stroke="#d1d1cd" stroke-width="1.51"/><path d="M1484,-28L1488,-128L1403,-26Z" fill="#d1d1cd" stroke="#d1d1cd" stroke-width="1.51"/><path d="M1350,-110L1488,-128L1173,-136Z" fill="#d4d4d1" stroke="#d4d4d1" stroke-width="1.51"/><path d="M1596,1066L1639,1101L1646,1027Z" fill="#a4a49d" stroke="#a4a49d" stroke-width="1.51"/><path d="M1646,1027L1639,1101L1704,488Z" fill="#a5a59e" stroke="#a5a59e" stroke-width="1.51"/><path d="M1465,1123L1639,1101L1596,1066Z" fill="#a4a49d" stroke="#a4a49d" stroke-width="1.51"/><path d="M1696,193L1666,97L1558,208Z" fill="#c8c8c4" stroke="#c8c8c4" stroke-width="1.51"/><path d="M42,-132L-74,-63L47,-35Z" fill="#ffffff" stroke="#ffffff" stroke-width="1.51"/><path d="M-57,-14L-104,-33L-114,137Z" fill="#fdfdfd" stroke="#fdfdfd" stroke-width="1.51"/><path d="M-74,-63L-104,-33L-57,-14Z" fill="#ffffff" stroke="#ffffff" stroke-width="1.51"/><path d="M-136,915L-180,1084L-102,982Z" fill="#d1d1cd" stroke="#d1d1cd" stroke-width="1.51"/><path d="M-102,982L-180,1084L-20,1034Z" fill="#d1d1cd" stroke="#d1d1cd" stroke-width="1.51"/><path d="M-159,497L-180,1084L-136,915Z" fill="#d4d4d1" stroke="#d4d4d1" stroke-width="1.51"/><path d="M-161,298L-180,1084L-159,497Z" fill="#dfdfdc" stroke="#dfdfdc" stroke-width="1.51"/><path d="M1672,-27L1584,-92L1546,10Z" fill="#d1d1cd" stroke="#d1d1cd" stroke-width="1.51"/><path d="M-74,-63L-95,-111L-104,-33Z" fill="#ffffff" stroke="#ffffff" stroke-width="1.51"/><path d="M-104,-33L-95,-111L-145,198Z" fill="#fefefe" stroke="#fefefe" stroke-width="1.51"/><path d="M42,-132L-95,-111L-74,-63Z" fill="#ffffff" stroke="#ffffff" stroke-width="1.51"/><path d="M1666,97L1672,-27L1563,82Z" fill="#cececa" stroke="#cececa" stroke-width="1.51"/><path d="M1707,-79L1672,-27L1666,97Z" fill="#d1d1cd" stroke="#d1d1cd" stroke-width="1.51"/><path d="M1696,193L1707,-79L1666,97Z" fill="#cdcdc9" stroke="#cdcdc9" stroke-width="1.51"/><path d="M1672,-27L1707,-79L1584,-92Z" fill="#d1d1cd" stroke="#d1d1cd" stroke-width="1.51"/><path d="M1584,-92L1707,-79L1488,-128Z" fill="#d1d1cd" stroke="#d1d1cd" stroke-width="1.51"/><path d="M1704,488L1707,-79L1696,193Z" fill="#c6c6c2" stroke="#c6c6c2" stroke-width="1.51"/></svg>